<?xml version="1.0" encoding="UTF-8" standalone="no"?>
<!-- Created with Inkscape (http://www.inkscape.org/) -->

<svg
   width="500"
   height="500"
   viewBox="0 0 132.29167 132.29167"
   version="1.1"
   id="svg5"
   inkscape:version="1.1.2 (0a00cf5339, 2022-02-04)"
   sodipodi:docname="logo-square.svg"
   xmlns:inkscape="http://www.inkscape.org/namespaces/inkscape"
   xmlns:sodipodi="http://sodipodi.sourceforge.net/DTD/sodipodi-0.dtd"
   xmlns="http://www.w3.org/2000/svg"
   xmlns:svg="http://www.w3.org/2000/svg">
  <sodipodi:namedview
     id="namedview7"
     pagecolor="#ffffff"
     bordercolor="#666666"
     borderopacity="1.0"
     inkscape:pageshadow="2"
     inkscape:pageopacity="0.0"
     inkscape:pagecheckerboard="0"
     inkscape:document-units="mm"
     showgrid="false"
     inkscape:zoom="1.1866162"
     inkscape:cx="294.53501"
     inkscape:cy="260.40434"
     inkscape:window-width="1600"
     inkscape:window-height="851"
     inkscape:window-x="0"
     inkscape:window-y="25"
     inkscape:window-maximized="1"
     inkscape:current-layer="layer1"
     fit-margin-top="0"
     fit-margin-left="0"
     fit-margin-right="0"
     fit-margin-bottom="0"
     units="px"
     inkscape:snap-object-midpoints="true"
     inkscape:snap-center="true"
     inkscape:snap-page="true" />
  <defs
     id="defs2" />
  <g
     inkscape:label="Layer 1"
     inkscape:groupmode="layer"
     id="layer1"
     transform="translate(103.01866,-180.69379)">
    <path
       d="m -48.088078,266.58813 c 1.316939,-0.38645 2.288104,-2.70683 3.029832,-3.79678 0.961535,-1.41294 2.735446,-3.06536 3.135602,-4.74598 0.332353,-1.39586 -0.416832,-2.96515 -0.981332,-4.20358 -1.062288,-2.33054 -2.104777,-4.65105 -3.308357,-6.91556 -7.730653,-14.54439 -20.298815,-27.27256 -35.911183,-33.09303 -4.424067,-1.64943 -9.028324,-2.91389 -13.695532,-3.64233 -0.940143,-0.14658 -3.865293,-0.97347 -4.468402,0.0414 -0.27361,0.46049 0.16564,0.89766 0.538632,1.11042 0.951731,0.54253 2.218989,0.71013 3.251766,1.08535 4.70008,1.70759 9.056415,4.07069 13.153141,6.9336 12.149567,8.49027 21.34334,20.98345 28.494578,33.8022"
       style="fill:#7a0a86;fill-opacity:1;stroke:none;stroke-width:0.0358773"
       id="path8542" />
    <path
       id="path6007"
       style="fill:#000000;stroke:none;stroke-width:0.5125"
       d="m 231.65039,174.125 c -2.45507,0.0639 -4.81033,0.48954 -5.57422,1.59961 -1.33199,1.93474 -0.2412,5.25544 -0.64453,7.46484 -0.66727,3.65258 -4.41638,4.63162 -7.57031,5.31836 -5.76923,1.25564 -5.52251,-5.67488 -9.33399,-7.78125 -2.74085,-1.51445 -7.42605,2.24046 -9.62109,3.71289 -5.68825,3.81608 0.83638,7.00791 1.24023,11.5625 0.51712,5.83945 -7.40982,8.32722 -11.49804,6.66211 2.55841,5.74209 8.31274,13.01315 12.8125,17.42578 3.73613,-5.53704 7.57231,-10.23316 13.32617,-13.80273 32.673,-20.26946 69.8066,23.60858 45.03125,52.75195 -3.05912,3.5983 -6.46061,6.67619 -10.69336,8.83789 -6.18486,3.15855 -12.11177,3.97461 -18.96289,3.97461 l 4.61133,17.42578 13.54883,-15.88672 20.9375,-22.42382 L 285,236.63086 l 8.19922,-7.31641 c -6.42677,0 -10.13277,0.3126 -12.00391,-6.66211 -0.36283,-1.35352 -0.83039,-2.72766 -0.18359,-4.07812 1.41143,-2.94686 5.42364,-3.33477 7.39062,-5.76758 2.11305,-2.61377 -2.71233,-10.23242 -5.04882,-11.875 -4.56998,-3.21233 -8.36673,5.93239 -13.72852,1.16406 -0.87638,-0.779 -1.72891,-1.62746 -2.50586,-2.50586 -4.20815,-4.75755 1.99103,-7.0573 2.08789,-11.78515 0.0615,-3.02019 -7.70671,-7.06321 -10.33789,-7.41992 -3.4968,-0.47407 -4.60879,4.7141 -6.4707,6.73437 -2.31907,2.51637 -6.0956,1.4023 -8.90821,0.23242 -5.71951,-2.37849 -0.16954,-11.04922 -5.66406,-12.65234 -1.16645,-0.34056 -3.72071,-0.63808 -6.17578,-0.57422 z m 1.08789,39.76758 c -0.8375,0.0446 -1.69553,0.13394 -2.57617,0.27148 -9.20145,1.43705 -19.31855,9.06855 -19.5625,19.25196 -0.0825,3.45222 3.25757,6.82839 4.8125,9.73632 5.11528,9.56637 8.31284,17.64342 20.90039,15.66211 27.43879,-4.31893 22.38833,-46.30355 -3.57422,-44.92187 z m 187.64258,108.1914 c -4.73744,-0.0654 -9.41694,0.24556 -13.40625,1.75 -12.4374,4.69044 -23.89461,22.15614 -13.08594,34.0293 4.74013,5.20751 11.29499,4.70313 17.69922,4.70313 h 38.4375 c 4.70631,0 18.80287,-1.54332 15.95899,7.17382 -2.77007,8.49011 -17.36696,5.63868 -24.16016,5.63868 h -42.53711 c -3.55266,0 -12.72617,-1.65374 -15.58594,0.52539 -2.54814,1.94135 -2.78603,10.26372 -3.37695,13.31054 h 55.86328 c 8.40298,0 19.20602,1.7903 27.16211,-1.26367 12.10168,-4.64481 24.35895,-22.38593 13.27148,-34.07812 -5.13986,-5.42022 -12.01146,-5.14453 -18.9082,-5.14453 H 420.8125 c -4.47208,0 -18.52205,2.08603 -16.61914,-6.1504 2.10075,-9.0918 17.0058,-6.15039 23.79492,-6.15039 h 43.04883 c 3.61005,0 12.66298,1.64668 15.59961,-0.52734 2.52153,-1.86652 2.97685,-10.31905 3.36328,-13.31055 h -55.86328 c -4.22353,0 -9.01842,-0.44045 -13.75586,-0.50586 z m -98.82422,0.48438 c -17.21838,-0.013 -32.1911,0.84421 -45.17969,15.39648 -11.44057,12.81767 -12.81945,34.95964 -15.97851,51.25 3.10063,0 10.99119,1.43494 13.46094,-0.52539 2.55225,-2.02541 2.94361,-10.70667 3.49609,-13.82422 1.8245,-10.29411 3.12155,-23.04465 10.72656,-30.74804 2.93356,-2.972 6.23443,-5.37529 10.24219,-6.65039 4.6407,-1.47651 9.53979,-1.03907 14.34961,-1.03907 11.42162,0 30.82776,-3.89685 35.9707,9.73829 1.87166,4.96252 0.41902,9.91264 -0.60547,14.86132 -1.91008,9.22504 -4.89094,18.79489 -5.63867,28.1875 h 13.83594 c 2.08792,-16.1684 12.66517,-36.4637 5.18164,-52.27539 -6.42216,-13.56797 -19.26729,-14.34961 -32.34375,-14.34961 -2.55213,0 -5.05781,-0.0196 -7.51758,-0.0215 z m 3.41797,18.98437 -13.03516,0.52735 -3.18554,11.77344 -7.35352,35.36132 h 13.83594 c 3.16982,-15.36635 9.06383,-31.99237 9.73828,-47.66211 z m 44.33789,33.32422 c -1.91316,0.0352 -3.61116,0.29319 -4.57422,1.02735 -2.3611,1.79992 -2.98796,10.42159 -3.37695,13.31054 l 13.46094,-0.52539 3.45312,-13.31054 c -1.98562,0 -5.77429,-0.56071 -8.96289,-0.50196 z M 244,375.37891 l -2.5625,13.83593 h 13.83594 l 2.5625,-13.83593 z"
       transform="matrix(0.26458333,0,0,0.26458333,-103.01866,180.69379)"
       sodipodi:nodetypes="sccccccccccccccccccscccscssccssscssssscsscssccscssscssccssscccccsscccccssccccccsscccsccccc" />
    <path
       d="m -41.443709,283.94485 c 1.012924,-1.0109 1.400016,-2.91405 2.004158,-4.20358 1.532364,-3.27081 2.897463,-6.62259 4.673701,-9.76315 4.877759,-8.62433 9.784443,-17.56039 16.363861,-24.81469 2.331902,-2.5711 4.752893,-5.18193 7.480201,-7.34325 0.438527,-0.34754 2.5306911,-1.8672 1.3008053,-2.52865 -0.8919733,-0.47989 -3.5291363,0.69528 -4.4316573,1.01618 -4.588436,1.63146 -8.54831,4.42136 -12.33954,7.4101 -6.329768,4.98993 -11.520414,11.62497 -16.453764,18.12434 -1.614164,2.12657 -3.91177,4.46895 -4.264058,6.77997 -0.243941,1.60007 0.720167,3.16624 1.26962,4.61038 1.331176,3.49941 2.510078,7.47952 4.396673,10.71235"
       style="fill:#86e93e;fill-opacity:1;stroke:none;stroke-width:0.0358773"
       id="path10450" />
  </g>
</svg>
